<svg width="849" height="311" viewBox="0 0 849 311" fill="none" xmlns="http://www.w3.org/2000/svg">
<mask id="mask0" mask-type="alpha" maskUnits="userSpaceOnUse" x="0" y="0" width="849" height="311">
<rect width="849" height="311" rx="4" fill="#175EA2"/>
</mask>
<g mask="url(#mask0)">
<rect width="849" height="311" rx="8" fill="url(#paint0_linear)"/>
<g opacity="0.35">
<g filter="url(#filter0_b)">
<path d="M641.827 92.9153L641.827 147.654L577.523 147.654C565.084 147.654 555 137.323 555 124.579L555 92.9153L641.827 92.9153Z" fill="#FFFADA"/>
</g>
<path d="M639.939 147.654H709.778V267.564C709.778 305.585 678.51 336.408 639.939 336.408V336.408V147.654Z" fill="#FFFCE8"/>
<path d="M759.064 192.955C791.265 192.955 817.368 219.152 817.368 251.468V251.468L613.304 251.468C581.104 251.468 555 225.271 555 192.955V192.955L759.064 192.955Z" fill="#478578"/>
<path d="M622.952 92.9153H639.94V147.654H622.952V92.9153Z" fill="#156429" fill-opacity="0.38"/>
<path d="M709.778 251.468L709.778 268.456L639.939 268.456L639.939 251.468L709.778 251.468Z" fill="#217671" fill-opacity="0.99"/>
<g filter="url(#filter1_b)">
<path fill-rule="evenodd" clip-rule="evenodd" d="M640.021 57.0518C642.009 10.85 680.331 -26 727.314 -26H773.407C821.663 -26 860.782 12.8737 860.782 60.8268C860.782 108.78 821.663 147.654 773.407 147.654H727.314C725.864 147.654 724.423 147.619 722.991 147.549V147.654H639.94V61.031C639.94 60.963 639.939 60.8949 639.939 60.8268C639.939 60.7587 639.94 60.6907 639.94 60.6226V57.0518H640.021ZM764.882 28.7383L709.779 28.7383V94.8022H764.882C783.445 94.8022 798.493 80.0133 798.493 61.7702C798.493 43.5272 783.445 28.7383 764.882 28.7383Z" fill="#FFFADA"/>
</g>
</g>
<ellipse opacity="0.95" cx="6.00025" cy="15.5" rx="218.5" ry="219" transform="rotate(90 6.00025 15.5)" fill="url(#paint1_linear)"/>
<circle cx="16.5002" cy="25.5" r="223" stroke="#2E6EAC" stroke-opacity="0.2"/>
<g filter="url(#filter2_f)">
<ellipse cx="3.5" cy="97" rx="26.5" ry="44" fill="url(#paint2_linear)" fill-opacity="0.3"/>
</g>
</g>
<defs>
<filter id="filter0_b" x="481" y="18.9153" width="234.827" height="202.739" filterUnits="userSpaceOnUse" color-interpolation-filters="sRGB">
<feFlood flood-opacity="0" result="BackgroundImageFix"/>
<feGaussianBlur in="BackgroundImage" stdDeviation="37"/>
<feComposite in2="SourceAlpha" operator="in" result="effect1_backgroundBlur"/>
<feBlend mode="normal" in="SourceGraphic" in2="effect1_backgroundBlur" result="shape"/>
</filter>
<filter id="filter1_b" x="565.939" y="-100" width="368.842" height="321.654" filterUnits="userSpaceOnUse" color-interpolation-filters="sRGB">
<feFlood flood-opacity="0" result="BackgroundImageFix"/>
<feGaussianBlur in="BackgroundImage" stdDeviation="37"/>
<feComposite in2="SourceAlpha" operator="in" result="effect1_backgroundBlur"/>
<feBlend mode="normal" in="SourceGraphic" in2="effect1_backgroundBlur" result="shape"/>
</filter>
<filter id="filter2_f" x="-66" y="10" width="139" height="174" filterUnits="userSpaceOnUse" color-interpolation-filters="sRGB">
<feFlood flood-opacity="0" result="BackgroundImageFix"/>
<feBlend mode="normal" in="SourceGraphic" in2="BackgroundImageFix" result="shape"/>
<feGaussianBlur stdDeviation="21.5" result="effect1_foregroundBlur"/>
</filter>
<linearGradient id="paint0_linear" x1="0" y1="155.5" x2="849" y2="155.5" gradientUnits="userSpaceOnUse">
<stop stop-color="#D4FC79"/>
<stop offset="1" stop-color="#03A06C"/>
</linearGradient>
<linearGradient id="paint1_linear" x1="-76.231" y1="-318.681" x2="201.195" y2="95.2943" gradientUnits="userSpaceOnUse">
<stop stop-color="#2AAC4A"/>
<stop offset="1" stop-color="#3B7EC1" stop-opacity="0"/>
<stop offset="1" stop-color="#2AAC4A" stop-opacity="0.17"/>
</linearGradient>
<linearGradient id="paint2_linear" x1="37.5" y1="106.5" x2="-61.5" y2="92" gradientUnits="userSpaceOnUse">
<stop stop-color="#D3FC79"/>
<stop offset="1" stop-color="#C4C4C4" stop-opacity="0"/>
</linearGradient>
</defs>
</svg>
