<svg width="89" height="65" viewBox="0 0 89 65" fill="none" xmlns="http://www.w3.org/2000/svg">
<path d="M79.5735 37.6854C79.4458 37.1133 78.9656 36.7096 78.4132 36.7096C76.7891 36.7096 73.8754 35.8488 71.4114 34.7088V29.1997C71.4114 27.0997 69.8063 25.3912 67.8335 25.3912H65.4482V2.53905C65.4482 1.13902 64.3781 0 63.0629 0H27.2836C25.9683 0 24.8983 1.13902 24.8983 2.53905V17.774H21.3204C20.0051 17.774 18.9351 18.913 18.9351 20.3131V57.1294C18.9351 59.2295 20.5401 60.938 22.513 60.938H61.2519C62.6548 62.3181 64.3173 63.6353 66.2884 64.833C66.4716 64.9444 66.6756 65 66.8797 65C67.0838 65 67.2877 64.9443 67.471 64.833C75.7247 59.8177 78.5813 52.7111 79.5243 47.6326C80.5437 42.1429 79.6136 37.8649 79.5735 37.6854V37.6854ZM27.2836 2.53905H63.0629V25.3912H42.4028L40.4037 20.0713C39.8793 18.6757 38.6676 17.7739 37.3168 17.7739H27.2836V2.53905ZM21.3204 57.1294V55.8598H27.5216C28.1803 55.8598 28.7143 55.2914 28.7143 54.5903C28.7143 53.8891 28.1803 53.3207 27.5216 53.3207H21.3204V20.3131H37.3168C37.7373 20.3131 38.0579 20.6652 38.1891 21.0143L40.4882 27.1322C40.6693 27.6142 41.1079 27.9302 41.5955 27.9302H67.8337C68.4913 27.9302 69.0263 28.4997 69.0263 29.1997V33.4083C68.4976 33.06 68.0483 32.7063 67.7184 32.359C67.2537 31.8698 66.5059 31.8698 66.0412 32.359C64.0851 34.4179 57.9965 36.7095 55.3461 36.7095C54.7938 36.7095 54.3137 37.1132 54.1858 37.6853C54.1457 37.8648 53.2156 42.1428 54.2351 47.6325C54.8178 50.7709 56.1322 54.6837 58.9986 58.399H22.513C21.8554 58.399 21.3204 57.8295 21.3204 57.1294ZM77.1843 47.1402C75.9936 53.5514 72.5284 58.6345 66.8796 62.2587C61.262 58.6543 57.8031 53.6051 56.5939 47.241C55.9173 43.6796 56.1615 40.6345 56.3571 39.1821C59.4343 38.8136 64.2943 36.964 66.8797 34.9202C69.4656 36.9645 74.3272 38.8144 77.4043 39.1824C77.5992 40.6156 77.8411 43.603 77.1843 47.1402V47.1402Z" fill="#03A06C"/>
<path d="M31.6369 7.6173H58.7098C59.3684 7.6173 59.9024 7.04893 59.9024 6.34777C59.9024 5.64661 59.3684 5.07825 58.7098 5.07825H31.6369C30.9782 5.07825 30.4442 5.64661 30.4442 6.34777C30.4442 7.04893 30.9782 7.6173 31.6369 7.6173Z" fill="#03A06C"/>
<path d="M59.9024 11.4259C59.9024 10.7247 59.3684 10.1564 58.7098 10.1564H31.6369C30.9782 10.1564 30.4442 10.7247 30.4442 11.4259C30.4442 12.1271 30.9782 12.6954 31.6369 12.6954H58.7098C59.3683 12.6954 59.9024 12.1271 59.9024 11.4259Z" fill="#03A06C"/>
<path d="M58.7098 15.2344H45.1733C44.5146 15.2344 43.9807 15.8028 43.9807 16.504C43.9807 17.2051 44.5146 17.7735 45.1733 17.7735H58.7098C59.3685 17.7735 59.9024 17.2051 59.9024 16.504C59.9024 15.8028 59.3684 15.2344 58.7098 15.2344Z" fill="#03A06C"/>
<path d="M58.7099 20.3126H51.6733C51.0146 20.3126 50.4806 20.8809 50.4806 21.5821C50.4806 22.2832 51.0146 22.8516 51.6733 22.8516H58.7099C59.3686 22.8516 59.9025 22.2832 59.9025 21.5821C59.9025 20.8809 59.3684 20.3126 58.7099 20.3126Z" fill="#03A06C"/>
<path d="M71.3347 41.5894C70.379 41.5894 69.4806 41.9856 68.8048 42.705L65.5131 46.2088L64.9538 45.6134C64.278 44.8941 63.3796 44.498 62.4239 44.498C61.4683 44.498 60.5699 44.8942 59.8942 45.6134C59.2185 46.3327 58.8463 47.2891 58.8463 48.3063C58.8463 49.3236 59.2185 50.2799 59.8941 50.9993L62.9833 54.2876C63.6808 55.03 64.5969 55.4011 65.513 55.4011C66.4291 55.4011 67.3454 55.0299 68.0428 54.2876L73.8644 48.0908C75.2593 46.6059 75.2593 44.1898 73.8644 42.7051C73.1889 41.9856 72.2904 41.5894 71.3347 41.5894V41.5894ZM72.1779 46.2952L66.3564 52.492C65.8916 52.9868 65.1351 52.9867 64.6702 52.492L61.581 49.2036C61.3557 48.964 61.2318 48.6452 61.2318 48.3062C61.2318 47.9671 61.3558 47.6485 61.581 47.4088C61.8062 47.169 62.1056 47.0371 62.4241 47.0371C62.7425 47.0371 63.042 47.1691 63.2671 47.4088L64.6698 48.9019C64.8934 49.1399 65.1968 49.2737 65.5131 49.2737C65.8294 49.2737 66.1328 49.1399 66.3564 48.9019L70.4915 44.5003C70.7166 44.2605 71.0161 44.1286 71.3345 44.1286C71.6531 44.1286 71.9524 44.2606 72.1776 44.5003C72.6427 44.9952 72.6427 45.8003 72.1779 46.2952V46.2952Z" fill="#03A06C"/>
<path d="M32.8883 53.3207C32.2295 53.3207 31.6956 53.8891 31.6956 54.5902C31.6956 55.2914 32.2295 55.8598 32.8883 55.8598H32.8891C33.5478 55.8598 34.0814 55.2914 34.0814 54.5902C34.0814 53.8891 33.547 53.3207 32.8883 53.3207Z" fill="#03A06C"/>
<g filter="url(#filter0_d)">
<rect x="1.08518" y="0.625918" width="64.9188" height="16.9876" rx="1.1" transform="matrix(0.961649 -0.274284 0.244107 0.969748 9.88883 28.2643)" fill="white" stroke="#03A06C" stroke-width="1.8"/>
<path d="M22.2718 37.0774L20.8775 31.5382L25.2241 30.2985L26.6185 35.8377L25.4568 36.169L24.3085 31.6073L22.2852 32.1844L23.4335 36.7461L22.2718 37.0774ZM32.2902 31.2432C32.4347 31.8173 32.4661 32.346 32.3844 32.8294C32.3065 33.3062 32.1052 33.7184 31.7804 34.066C31.4557 34.4136 30.9933 34.673 30.3932 34.8442C29.7982 35.0139 29.2759 35.0354 28.8263 34.9086C28.3817 34.7804 28.0105 34.5287 27.7127 34.1536C27.42 33.777 27.2014 33.3016 27.0569 32.7275C26.9124 32.1535 26.8791 31.628 26.957 31.1513C27.04 30.673 27.2445 30.2627 27.5706 29.9202C27.9005 29.5711 28.3655 29.311 28.9655 29.1399C29.5605 28.9702 30.0802 28.9494 30.5248 29.0776C30.968 29.2007 31.336 29.4505 31.6287 29.8271C31.9252 30.1971 32.1457 30.6691 32.2902 31.2432ZM28.2821 32.3864C28.4279 32.9657 28.6534 33.3919 28.9585 33.6652C29.2624 33.9333 29.6579 33.9979 30.1452 33.8589C30.6427 33.717 30.9575 33.4499 31.0895 33.0574C31.2203 32.6598 31.2128 32.1713 31.067 31.5921C30.9199 31.0077 30.697 30.5806 30.3982 30.3111C30.0995 30.0415 29.704 29.9769 29.2116 30.1174C28.7192 30.2578 28.4044 30.525 28.2672 30.9189C28.13 31.3128 28.135 31.802 28.2821 32.3864ZM36.2024 27.1672L36.4465 28.137L34.1386 28.7952L35.2888 33.3647L34.1272 33.696L32.7328 28.1568L36.2024 27.1672ZM41.2605 31.6614L40.5285 30.4567L38.5283 31.0272L38.4602 32.4601L37.2062 32.8178L37.7447 26.7024L39.168 26.2964L42.5145 31.3038L41.2605 31.6614ZM39.2793 28.3767C39.2315 28.2961 39.1702 28.1944 39.0953 28.0716C39.0205 27.9488 38.9449 27.8235 38.8687 27.6955C38.7926 27.5676 38.7286 27.4556 38.677 27.3594C38.6773 27.4702 38.674 27.6097 38.6669 27.7781C38.6636 27.9398 38.659 28.0963 38.6532 28.2476C38.6511 28.3923 38.647 28.4961 38.6408 28.5588L38.5726 29.9585L40.0035 29.5504L39.2793 28.3767ZM50.1187 29.1349L43.2102 31.1053L41.8159 25.5661L42.9776 25.2348L44.1258 29.7965L45.8337 29.3094L44.6854 24.7477L45.8548 24.4141L47.0031 28.9758L48.711 28.4887L47.5627 23.927L48.7244 23.5957L50.1187 29.1349ZM54.6663 27.8378L51.5044 28.7396L50.1101 23.2004L53.272 22.2986L53.5142 23.2606L51.5139 23.8311L51.8205 25.0491L53.6823 24.5181L53.9244 25.4801L52.0627 26.0111L52.422 27.4386L54.4222 26.868L54.6663 27.8378ZM60.3098 26.2281L59.1482 26.5595L58.5467 24.17L56.3695 24.791L56.971 27.1805L55.8093 27.5118L54.415 21.9726L55.5767 21.6412L56.1235 23.8135L58.3006 23.1925L57.7538 21.0203L58.9155 20.6889L60.3098 26.2281ZM65.978 21.6347C66.1225 22.2088 66.1539 22.7375 66.0722 23.2209C65.9943 23.6977 65.793 24.1099 65.4682 24.4575C65.1434 24.8051 64.681 25.0645 64.0809 25.2357C63.486 25.4054 62.9637 25.4269 62.514 25.3001C62.0695 25.1719 61.6983 24.9202 61.4005 24.5451C61.1078 24.1685 60.8892 23.6931 60.7447 23.119C60.6001 22.5449 60.5668 22.0195 60.6447 21.5428C60.7277 21.0645 60.9323 20.6542 61.2583 20.3117C61.5882 19.9626 62.0532 19.7025 62.6533 19.5314C63.2482 19.3617 63.768 19.3409 64.2125 19.4691C64.6558 19.5922 65.0237 19.842 65.3164 20.2186C65.613 20.5886 65.8335 21.0606 65.978 21.6347ZM61.9698 22.7779C62.1156 23.3572 62.3411 23.7834 62.6463 24.0567C62.9501 24.3248 63.3457 24.3894 63.8329 24.2504C64.3304 24.1085 64.6452 23.8414 64.7773 23.4489C64.9081 23.0513 64.9006 22.5628 64.7548 21.9836C64.6076 21.3991 64.3847 20.9721 64.086 20.7026C63.7873 20.433 63.3917 20.3684 62.8993 20.5089C62.407 20.6493 62.0922 20.9165 61.955 21.3104C61.8178 21.7043 61.8227 22.1935 61.9698 22.7779Z" fill="#03A06C"/>
</g>
<defs>
<filter id="filter0_d" x="0.426727" y="1.11981" width="87.8927" height="55.5752" filterUnits="userSpaceOnUse" color-interpolation-filters="sRGB">
<feFlood flood-opacity="0" result="BackgroundImageFix"/>
<feColorMatrix in="SourceAlpha" type="matrix" values="0 0 0 0 0 0 0 0 0 0 0 0 0 0 0 0 0 0 127 0" result="hardAlpha"/>
<feOffset dy="1"/>
<feGaussianBlur stdDeviation="5"/>
<feColorMatrix type="matrix" values="0 0 0 0 0 0 0 0 0 0 0 0 0 0 0 0 0 0 0.1 0"/>
<feBlend mode="normal" in2="BackgroundImageFix" result="effect1_dropShadow"/>
<feBlend mode="normal" in="SourceGraphic" in2="effect1_dropShadow" result="shape"/>
</filter>
</defs>
</svg>
