<svg width="35" height="35" viewBox="0 0 35 35" fill="none" xmlns="http://www.w3.org/2000/svg">
<circle cx="17.5" cy="17.5" r="17.25" fill="white" fill-opacity="0.9" stroke="#DBDBDB" stroke-width="0.5"/>
<path d="M18.525 23.8333C18.4005 23.8338 18.2775 23.8063 18.165 23.7529C18.0525 23.6996 17.9534 23.6217 17.875 23.525L13.85 18.525C13.7274 18.3759 13.6604 18.1889 13.6604 17.9958C13.6604 17.8028 13.7274 17.6158 13.85 17.4667L18.0166 12.4667C18.1581 12.2965 18.3613 12.1895 18.5817 12.1691C18.8021 12.1488 19.0215 12.2169 19.1916 12.3583C19.3618 12.4998 19.4688 12.703 19.4892 12.9234C19.5095 13.1437 19.4414 13.3631 19.3 13.5333L15.575 18L19.175 22.4667C19.2769 22.589 19.3416 22.7379 19.3615 22.8959C19.3814 23.0538 19.3556 23.2142 19.2873 23.358C19.2189 23.5017 19.1107 23.6229 18.9757 23.7072C18.8406 23.7914 18.6842 23.8352 18.525 23.8333Z" fill="#939393"/>
</svg>
